<?xml version="1.0" encoding="UTF-8" standalone="no"?>
<!DOCTYPE svg PUBLIC "-//W3C//DTD SVG 1.1//EN" "http://www.w3.org/Graphics/SVG/1.1/DTD/svg11.dtd">
<svg width="100%" height="100%" viewBox="0 0 832 962" version="1.1" xmlns="http://www.w3.org/2000/svg" xmlns:xlink="http://www.w3.org/1999/xlink" xml:space="preserve" xmlns:serif="http://www.serif.com/" style="fill-rule:evenodd;clip-rule:evenodd;stroke-linejoin:round;stroke-miterlimit:2;">
    <g transform="matrix(1,0,0,1,-1179,-19)">
        <g transform="matrix(1,0,0,1,1095.11,0)">
            <g id="logo-dark" serif:id="logo dark">
                <g transform="matrix(333.734,0,0,333.734,79.1609,747.659)">
                    <path d="M0.781,-0.01L0.294,-0.01C0.217,-0.01 0.151,-0.037 0.097,-0.092C0.042,-0.147 0.015,-0.213 0.015,-0.29L0.015,-0.393L0.102,-0.393L0.102,-0.29C0.102,-0.237 0.121,-0.191 0.159,-0.154C0.196,-0.117 0.241,-0.098 0.294,-0.098L0.777,-0.098L0.777,-0.466L0.865,-0.466L0.865,-0.094C0.865,-0.071 0.857,-0.051 0.841,-0.035C0.824,-0.018 0.804,-0.01 0.781,-0.01ZM0.488,0.176C0.473,0.176 0.46,0.171 0.449,0.16C0.438,0.149 0.432,0.136 0.432,0.121C0.432,0.106 0.438,0.092 0.449,0.081C0.46,0.07 0.473,0.065 0.488,0.065C0.503,0.065 0.516,0.07 0.527,0.081C0.538,0.092 0.543,0.106 0.543,0.121C0.543,0.136 0.538,0.149 0.527,0.16C0.516,0.171 0.503,0.176 0.488,0.176Z" style="fill:rgb(5,3,23);fill-rule:nonzero;"/>
                </g>
                <g transform="matrix(333.734,0,0,333.734,372.847,747.659)">
                    <rect x="0.048" y="-0.689" width="0.087" height="0.679" style="fill:rgb(5,3,23);fill-rule:nonzero;"/>
                </g>
                <g transform="matrix(333.734,0,0,333.734,432.919,747.659)">
                    <path d="M0,0.322L-0.045,0.322L-0.045,0.234L0,0.234C0.053,0.234 0.099,0.215 0.137,0.177C0.174,0.14 0.193,0.094 0.193,0.041L0.193,-0.392L0.281,-0.392L0.281,-0.098L0.437,-0.098L0.437,-0.01L0.281,-0.01L0.281,0.041C0.281,0.118 0.254,0.184 0.199,0.239C0.143,0.294 0.077,0.322 0,0.322Z" style="fill:rgb(5,3,23);fill-rule:nonzero;"/>
                </g>
                <g transform="matrix(333.734,0,0,333.734,559.071,747.659)">
                    <rect x="-0.015" y="-0.098" width="0.314" height="0.088" style="fill:rgb(5,3,23);fill-rule:nonzero;"/>
                </g>
                <g transform="matrix(333.734,0,0,333.734,652.517,747.659)">
                    <path d="M0.603,-0.01L0.412,-0.01L0.412,-0.081L0.389,-0.065C0.352,-0.028 0.303,-0.01 0.242,-0.01L-0.03,-0.01L-0.03,-0.098L0.094,-0.1L0.094,-0.485L0.181,-0.485L0.181,-0.097L0.274,-0.097C0.312,-0.097 0.344,-0.111 0.372,-0.138C0.399,-0.165 0.412,-0.197 0.412,-0.235L0.412,-0.485L0.498,-0.485L0.498,-0.097L0.603,-0.097C0.63,-0.097 0.654,-0.107 0.673,-0.126C0.692,-0.145 0.702,-0.169 0.702,-0.196L0.702,-0.485L0.789,-0.485L0.789,-0.196C0.789,-0.145 0.771,-0.101 0.735,-0.065C0.698,-0.028 0.654,-0.01 0.603,-0.01Z" style="fill:rgb(5,3,23);fill-rule:nonzero;"/>
                </g>
                <g transform="matrix(124.182,0,0,124.182,266.009,957.156)">
                    <path d="M0.427,-0.098L0.427,-0.432L0.297,-0.432C0.247,-0.432 0.201,-0.41 0.158,-0.366C0.125,-0.329 0.108,-0.288 0.108,-0.244L0.109,-0.229C0.116,-0.178 0.137,-0.141 0.174,-0.118C0.201,-0.105 0.239,-0.098 0.29,-0.098L0.427,-0.098ZM0.649,-0.01L0.305,-0.01C0.28,-0.01 0.253,-0.012 0.222,-0.015C0.191,-0.018 0.161,-0.028 0.132,-0.043C0.069,-0.081 0.033,-0.14 0.023,-0.22C0.022,-0.228 0.022,-0.236 0.022,-0.244C0.022,-0.309 0.046,-0.369 0.093,-0.424C0.154,-0.487 0.222,-0.518 0.297,-0.518L0.514,-0.518L0.514,-0.098L0.649,-0.098L0.649,-0.01ZM0.454,-0.594C0.439,-0.594 0.426,-0.599 0.416,-0.61C0.405,-0.621 0.4,-0.633 0.4,-0.648C0.4,-0.663 0.405,-0.676 0.416,-0.687C0.426,-0.697 0.439,-0.702 0.454,-0.702C0.469,-0.702 0.481,-0.697 0.492,-0.687C0.502,-0.676 0.507,-0.663 0.507,-0.648C0.507,-0.633 0.502,-0.621 0.492,-0.61C0.481,-0.599 0.469,-0.594 0.454,-0.594ZM0.284,-0.594C0.269,-0.594 0.257,-0.599 0.247,-0.61C0.236,-0.621 0.231,-0.633 0.231,-0.648C0.231,-0.663 0.236,-0.676 0.247,-0.687C0.257,-0.697 0.269,-0.702 0.284,-0.702C0.299,-0.702 0.312,-0.697 0.323,-0.687C0.333,-0.676 0.338,-0.663 0.338,-0.648C0.338,-0.633 0.333,-0.621 0.323,-0.61C0.312,-0.599 0.299,-0.594 0.284,-0.594Z" style="fill:rgb(5,3,23);fill-rule:nonzero;"/>
                </g>
                <g transform="matrix(124.182,0,0,124.182,341.636,957.156)">
                    <rect x="-0.015" y="-0.098" width="0.314" height="0.088" style="fill:rgb(5,3,23);fill-rule:nonzero;"/>
                </g>
                <g transform="matrix(124.182,0,0,124.182,376.407,957.156)">
                    <rect x="-0.015" y="-0.098" width="0.314" height="0.088" style="fill:rgb(5,3,23);fill-rule:nonzero;"/>
                </g>
                <g transform="matrix(124.182,0,0,124.182,411.178,957.156)">
                    <rect x="-0.015" y="-0.098" width="0.314" height="0.088" style="fill:rgb(5,3,23);fill-rule:nonzero;"/>
                </g>
                <g transform="matrix(124.182,0,0,124.182,445.949,957.156)">
                    <rect x="-0.015" y="-0.098" width="0.314" height="0.088" style="fill:rgb(5,3,23);fill-rule:nonzero;"/>
                </g>
                <g transform="matrix(124.182,0,0,124.182,480.72,957.156)">
                    <path d="M0.254,0.186C0.239,0.186 0.226,0.181 0.216,0.17C0.205,0.159 0.2,0.147 0.2,0.132C0.2,0.117 0.205,0.104 0.216,0.093C0.226,0.083 0.239,0.078 0.254,0.078C0.269,0.078 0.281,0.083 0.292,0.093C0.302,0.104 0.307,0.117 0.307,0.132C0.307,0.147 0.302,0.159 0.292,0.17C0.281,0.181 0.269,0.186 0.254,0.186ZM0.084,0.186C0.069,0.186 0.057,0.181 0.047,0.17C0.036,0.159 0.031,0.147 0.031,0.132C0.031,0.117 0.036,0.104 0.047,0.093C0.057,0.083 0.069,0.078 0.084,0.078C0.099,0.078 0.112,0.083 0.123,0.093C0.133,0.104 0.138,0.117 0.138,0.132C0.138,0.147 0.133,0.159 0.123,0.17C0.112,0.181 0.099,0.186 0.084,0.186ZM0.352,-0.01L-0.02,-0.01L-0.02,-0.098L0.117,-0.098L0.117,-0.466L0.205,-0.466L0.205,-0.098L0.352,-0.098L0.352,-0.01Z" style="fill:rgb(5,3,23);fill-rule:nonzero;"/>
                </g>
                <g transform="matrix(124.182,0,0,124.182,521.949,957.156)">
                    <path d="M0.352,-0.01L-0.02,-0.01L-0.02,-0.098L0.117,-0.098L0.117,-0.466L0.205,-0.466L0.205,-0.098L0.352,-0.098L0.352,-0.01ZM0.153,-0.594C0.138,-0.594 0.125,-0.599 0.115,-0.61C0.104,-0.62 0.099,-0.632 0.099,-0.647C0.099,-0.662 0.104,-0.675 0.115,-0.686C0.125,-0.696 0.138,-0.701 0.153,-0.701C0.168,-0.701 0.18,-0.696 0.191,-0.686C0.201,-0.675 0.206,-0.662 0.206,-0.647C0.206,-0.632 0.201,-0.62 0.191,-0.61C0.18,-0.599 0.168,-0.594 0.153,-0.594Z" style="fill:rgb(5,3,23);fill-rule:nonzero;"/>
                </g>
                <g transform="matrix(124.182,0,0,124.182,563.177,957.156)">
                    <path d="M0.356,-0.096L0.375,-0.097L0.441,-0.097L0.441,-0.415L0.372,-0.415C0.322,-0.415 0.275,-0.393 0.232,-0.349C0.199,-0.311 0.182,-0.27 0.182,-0.226C0.182,-0.178 0.205,-0.142 0.25,-0.118C0.281,-0.103 0.316,-0.096 0.356,-0.096ZM0.659,-0.01L-0.035,-0.01L-0.035,-0.097L0.141,-0.097L0.123,-0.119C0.105,-0.15 0.096,-0.185 0.096,-0.226C0.096,-0.292 0.12,-0.352 0.167,-0.407C0.228,-0.47 0.296,-0.502 0.372,-0.502L0.528,-0.502L0.528,-0.098L0.659,-0.098L0.659,-0.01ZM0.304,-0.574C0.289,-0.574 0.277,-0.579 0.267,-0.59C0.256,-0.601 0.251,-0.613 0.251,-0.628C0.251,-0.643 0.256,-0.656 0.267,-0.667C0.277,-0.677 0.289,-0.682 0.304,-0.682C0.319,-0.682 0.332,-0.677 0.343,-0.667C0.353,-0.656 0.358,-0.643 0.358,-0.628C0.358,-0.613 0.353,-0.601 0.343,-0.59C0.332,-0.579 0.319,-0.574 0.304,-0.574ZM0.474,-0.574C0.459,-0.574 0.446,-0.579 0.436,-0.59C0.425,-0.601 0.42,-0.613 0.42,-0.628C0.42,-0.643 0.425,-0.656 0.436,-0.667C0.446,-0.677 0.459,-0.682 0.474,-0.682C0.489,-0.682 0.501,-0.677 0.511,-0.667C0.522,-0.656 0.527,-0.643 0.527,-0.628C0.527,-0.613 0.522,-0.601 0.511,-0.59C0.501,-0.579 0.489,-0.574 0.474,-0.574Z" style="fill:rgb(5,3,23);fill-rule:nonzero;"/>
                </g>
                <g transform="matrix(124.182,0,0,124.182,638.183,957.156)">
                    <path d="M0.244,-0.574C0.229,-0.574 0.216,-0.579 0.205,-0.59C0.195,-0.601 0.19,-0.613 0.19,-0.628C0.19,-0.643 0.195,-0.656 0.205,-0.667C0.216,-0.677 0.229,-0.682 0.244,-0.682C0.259,-0.682 0.271,-0.677 0.281,-0.667C0.292,-0.656 0.297,-0.643 0.297,-0.628C0.297,-0.613 0.292,-0.601 0.281,-0.59C0.271,-0.579 0.259,-0.574 0.244,-0.574ZM0.074,-0.574C0.059,-0.574 0.047,-0.579 0.037,-0.59C0.026,-0.601 0.021,-0.613 0.021,-0.628C0.021,-0.643 0.026,-0.656 0.037,-0.667C0.047,-0.677 0.059,-0.682 0.074,-0.682C0.089,-0.682 0.102,-0.677 0.113,-0.667C0.123,-0.656 0.128,-0.643 0.128,-0.628C0.128,-0.613 0.123,-0.601 0.113,-0.59C0.102,-0.579 0.089,-0.574 0.074,-0.574ZM0.352,-0.01L-0.02,-0.01L-0.02,-0.098L0.117,-0.098L0.117,-0.466L0.205,-0.466L0.205,-0.098L0.352,-0.098L0.352,-0.01Z" style="fill:rgb(5,3,23);fill-rule:nonzero;"/>
                </g>
                <g transform="matrix(124.182,0,0,124.182,679.412,957.156)">
                    <path d="M0.177,-0.01L-0.026,-0.01L-0.027,-0.098L0.155,-0.098L0.156,-0.689L0.245,-0.689L0.246,-0.078C0.246,-0.059 0.239,-0.043 0.226,-0.03C0.212,-0.017 0.196,-0.01 0.177,-0.01Z" style="fill:rgb(5,3,23);fill-rule:nonzero;"/>
                </g>
                <g transform="matrix(124.182,0,0,124.182,714.183,957.156)">
                    <rect x="0.048" y="-0.689" width="0.087" height="0.679" style="fill:rgb(5,3,23);fill-rule:nonzero;"/>
                </g>
                <g transform="matrix(-29.9275,0,0,-29.9275,36415.1,20804.6)">
                    <path d="M1197.16,682.977C1197.39,684.09 1198.26,684.953 1199.75,685.567C1200.37,685.815 1202.31,686.316 1205.6,687.072C1207.66,687.546 1209.3,688.102 1210.5,688.741L1198.76,688.741C1198.73,688.741 1198.71,688.737 1198.68,688.728C1197.65,688.375 1196.82,687.997 1196.2,687.596C1194.54,686.514 1193.66,684.974 1193.57,682.977L1197.16,682.977Z" style="fill:rgb(5,3,23);fill-rule:nonzero;"/>
                </g>
                <g transform="matrix(29.9275,0,0,29.9275,-35415.1,-20420.1)">
                    <path d="M1197.16,682.977C1197.39,684.09 1198.26,684.953 1199.75,685.567C1200.37,685.815 1202.31,686.316 1205.6,687.072C1207.66,687.546 1209.3,688.102 1210.5,688.741L1198.76,688.741C1198.73,688.741 1198.71,688.737 1198.68,688.728C1197.65,688.375 1196.82,687.997 1196.2,687.596C1194.54,686.514 1193.66,684.974 1193.57,682.977L1197.16,682.977Z" style="fill:url(#_Linear1);fill-rule:nonzero;"/>
                </g>
            </g>
        </g>
    </g>
    <defs>
        <linearGradient id="_Linear1" x1="0" y1="0" x2="1" y2="0" gradientUnits="userSpaceOnUse" gradientTransform="matrix(16.999,5.59818,-5.59818,16.999,1193.45,682.977)"><stop offset="0" style="stop-color:rgb(0,251,255);stop-opacity:1"/><stop offset="1" style="stop-color:rgb(0,66,255);stop-opacity:1"/></linearGradient>
    </defs>
</svg>
